# xmcd
#
# Track frame offsets: 
#        150
#        11887
#        27765
#        50360
#        62090
#        73982
#        86307
#        99460
#        112287
#        126195
#        137770
#        151535
#        162697
#        174392
#        188042
#        200932
#        213722
#        227425
#        241160
#        252682
#        266675
#        286522
#
# Disc length: 3972 seconds
#
# Revision: 3
# Processed by: cddbd v1.5.2PL0 Copyright (c) Steve Scherf et al.
# Submitted via: ExactAudioCopy v0.99pb4
#
DISCID=420f8216
DTITLE=Dr. Ross - Boogie Disease
DYEAR=1992
DGENRE=Blues
TTITLE0=Boogie Disease - take 5
TTITLE1=Going To The River
TTITLE2=Good Thing Blues
TTITLE3=Turkey Leg Woman
TTITLE4=Country Clown
TTITLE5=My Bebop Gal
TTITLE6=Memphis Boogie (Juke Box Boogie - take 1)
TTITLE7=Shake 'Em On Down
TTITLE8=Down South Blues
TTITLE9=Shake A My Hand
TTITLE10=Little Soldier Boy
TTITLE11=Mississippi Blues (Cat Squirrel)
TTITLE12=Going Back South
TTITLE13=Dr. Ross (Chicago) Break Down - take 2
TTITLE14=Taylor Mae
TTITLE15=Texas Hop
TTITLE16=Chicago Breakdown - take 3
TTITLE17=Juke Box Boogie - take 2
TTITLE18=Feel So Sad
TTITLE19=Polly Put Your Kettle On
TTITLE20=Industrial Avenue Boogie
TTITLE21=Downtown Boogie
EXTD=CD 371\n\nDr. Ross:  vocals, harmonica and guitar\n\nSubmitted 6/
EXTD=3/97\n[Jmccoy@efn.org]
EXTT0=
EXTT1=
EXTT2=
EXTT3=
EXTT4=
EXTT5=
EXTT6=
EXTT7=
EXTT8=
EXTT9=
EXTT10=
EXTT11=
EXTT12=
EXTT13=
EXTT14=
EXTT15=
EXTT16=
EXTT17=
EXTT18=
EXTT19=
EXTT20=
EXTT21=
PLAYORDER=
